<svg xmlns="http://www.w3.org/2000/svg" version="1.1" xmlns:xlink="http://www.w3.org/1999/xlink" xmlns:svgjs="http://svgjs.dev/svgjs" viewBox="0 0 800 800"><defs><linearGradient x1="50%" y1="0%" x2="50%" y2="100%" id="ffflurry-grad" gradientTransform="rotate(270)"><stop stop-color="hsl(51, 6%, 97%)" stop-opacity="1" offset="0%"></stop><stop stop-color="hsl(0, 0%, 0%)" stop-opacity="1" offset="45%"></stop><stop stop-color="hsl(9, 100%, 33%)" stop-opacity="1" offset="100%"></stop></linearGradient></defs><rect width="100%" height="100%" fill="hsl(51, 6%, 97%)"></rect><g fill="url(#ffflurry-grad)"><rect width="491" height="3" x="133.5" y="344.5" rx="1.5" transform="rotate(45, 379, 346)" opacity="0.77"></rect><rect width="482" height="3" x="446" y="457.5" rx="1.5" transform="rotate(45, 687, 459)" opacity="0.30"></rect><rect width="187" height="3" x="270.5" y="508.5" rx="1.5" transform="rotate(45, 364, 510)" opacity="0.68"></rect><rect width="59" height="3" x="336.5" y="225.5" rx="1.5" transform="rotate(45, 366, 227)" opacity="0.49"></rect><rect width="174" height="3" x="659" y="139.5" rx="1.5" transform="rotate(45, 746, 141)" opacity="0.65"></rect><rect width="217" height="3" x="115.5" y="63.5" rx="1.5" transform="rotate(45, 224, 65)" opacity="0.82"></rect><rect width="611" height="3" x="238.5" y="652.5" rx="1.5" transform="rotate(45, 544, 654)" opacity="0.99"></rect><rect width="86" height="3" x="510" y="787.5" rx="1.5" transform="rotate(45, 553, 789)" opacity="0.64"></rect><rect width="52" height="3" x="91" y="303.5" rx="1.5" transform="rotate(45, 117, 305)" opacity="0.14"></rect><rect width="251" height="3" x="174.5" y="29.5" rx="1.5" transform="rotate(45, 300, 31)" opacity="0.65"></rect><rect width="374" height="3" x="16" y="367.5" rx="1.5" transform="rotate(45, 203, 369)" opacity="0.18"></rect><rect width="94" height="3" x="626" y="600.5" rx="1.5" transform="rotate(45, 673, 602)" opacity="0.65"></rect><rect width="616" height="3" x="436" y="534.5" rx="1.5" transform="rotate(45, 744, 536)" opacity="0.82"></rect><rect width="485" height="3" x="-102.5" y="648.5" rx="1.5" transform="rotate(45, 140, 650)" opacity="0.13"></rect><rect width="301" height="3" x="550.5" y="318.5" rx="1.5" transform="rotate(45, 701, 320)" opacity="0.58"></rect><rect width="127" height="3" x="701.5" y="55.5" rx="1.5" transform="rotate(45, 765, 57)" opacity="0.33"></rect><rect width="407" height="3" x="393.5" y="406.5" rx="1.5" transform="rotate(45, 597, 408)" opacity="0.92"></rect><rect width="64" height="3" x="67" y="510.5" rx="1.5" transform="rotate(45, 99, 512)" opacity="0.84"></rect><rect width="301" height="3" x="1.5" y="565.5" rx="1.5" transform="rotate(45, 152, 567)" opacity="0.15"></rect><rect width="299" height="3" x="132.5" y="158.5" rx="1.5" transform="rotate(45, 282, 160)" opacity="0.92"></rect><rect width="271" height="3" x="47.5" y="233.5" rx="1.5" transform="rotate(45, 183, 235)" opacity="0.17"></rect><rect width="333" height="3" x="465.5" y="280.5" rx="1.5" transform="rotate(45, 632, 282)" opacity="0.79"></rect><rect width="234" height="3" x="357" y="707.5" rx="1.5" transform="rotate(45, 474, 709)" opacity="0.60"></rect><rect width="202" height="3" x="343" y="771.5" rx="1.5" transform="rotate(45, 444, 773)" opacity="0.15"></rect><rect width="88" height="3" x="92" y="462.5" rx="1.5" transform="rotate(45, 136, 464)" opacity="0.54"></rect><rect width="649" height="3" x="-279.5" y="251.5" rx="1.5" transform="rotate(45, 45, 253)" opacity="0.99"></rect><rect width="369" height="3" x="478.5" y="686.5" rx="1.5" transform="rotate(45, 663, 688)" opacity="0.43"></rect><rect width="37" height="3" x="374.5" y="569.5" rx="1.5" transform="rotate(45, 393, 571)" opacity="0.45"></rect><rect width="298" height="3" x="102" y="560.5" rx="1.5" transform="rotate(45, 251, 562)" opacity="0.40"></rect><rect width="53" height="3" x="561.5" y="767.5" rx="1.5" transform="rotate(45, 588, 769)" opacity="0.75"></rect><rect width="407" height="3" x="-74.5" y="241.5" rx="1.5" transform="rotate(45, 129, 243)" opacity="0.37"></rect><rect width="30" height="3" x="614" y="772.5" rx="1.5" transform="rotate(45, 629, 774)" opacity="0.92"></rect><rect width="224" height="3" x="630" y="253.5" rx="1.5" transform="rotate(45, 742, 255)" opacity="0.26"></rect><rect width="125" height="3" x="461.5" y="367.5" rx="1.5" transform="rotate(45, 524, 369)" opacity="0.28"></rect><rect width="49" height="3" x="192.5" y="193.5" rx="1.5" transform="rotate(45, 217, 195)" opacity="0.53"></rect><rect width="185" height="3" x="-5.5" y="573.5" rx="1.5" transform="rotate(45, 87, 575)" opacity="0.59"></rect><rect width="233" height="3" x="641.5" y="654.5" rx="1.5" transform="rotate(45, 758, 656)" opacity="0.67"></rect><rect width="533" height="3" x="57.5" y="638.5" rx="1.5" transform="rotate(45, 324, 640)" opacity="0.76"></rect><rect width="110" height="3" x="107" y="405.5" rx="1.5" transform="rotate(45, 162, 407)" opacity="0.37"></rect><rect width="337" height="3" x="411.5" y="54.5" rx="1.5" transform="rotate(45, 580, 56)" opacity="0.15"></rect><rect width="228" height="3" x="376" y="132.5" rx="1.5" transform="rotate(45, 490, 134)" opacity="0.67"></rect><rect width="411" height="3" x="541.5" y="740.5" rx="1.5" transform="rotate(45, 747, 742)" opacity="0.58"></rect><rect width="129" height="3" x="-25.5" y="131.5" rx="1.5" transform="rotate(45, 39, 133)" opacity="0.44"></rect><rect width="355" height="3" x="-139.5" y="698.5" rx="1.5" transform="rotate(45, 38, 700)" opacity="0.29"></rect><rect width="54" height="3" x="661" y="386.5" rx="1.5" transform="rotate(45, 688, 388)" opacity="0.54"></rect><rect width="449" height="3" x="126.5" y="79.5" rx="1.5" transform="rotate(45, 351, 81)" opacity="0.94"></rect><rect width="622" height="3" x="349" y="113.5" rx="1.5" transform="rotate(45, 660, 115)" opacity="0.80"></rect><rect width="427" height="3" x="240.5" y="276.5" rx="1.5" transform="rotate(45, 454, 278)" opacity="0.46"></rect><rect width="359" height="3" x="503.5" y="34.5" rx="1.5" transform="rotate(45, 683, 36)" opacity="0.21"></rect><rect width="274" height="3" x="625" y="349.5" rx="1.5" transform="rotate(45, 762, 351)" opacity="0.55"></rect><rect width="547" height="3" x="398.5" y="229.5" rx="1.5" transform="rotate(45, 672, 231)" opacity="0.20"></rect><rect width="158" height="3" x="520" y="703.5" rx="1.5" transform="rotate(45, 599, 705)" opacity="0.24"></rect><rect width="129" height="3" x="162.5" y="433.5" rx="1.5" transform="rotate(45, 227, 435)" opacity="0.69"></rect><rect width="279" height="3" x="152.5" y="717.5" rx="1.5" transform="rotate(45, 292, 719)" opacity="0.11"></rect><rect width="236" height="3" x="294" y="162.5" rx="1.5" transform="rotate(45, 412, 164)" opacity="0.18"></rect><rect width="343" height="3" x="-142.5" y="498.5" rx="1.5" transform="rotate(45, 29, 500)" opacity="0.97"></rect><rect width="105" height="3" x="344.5" y="449.5" rx="1.5" transform="rotate(45, 397, 451)" opacity="0.37"></rect><rect width="77" height="3" x="406.5" y="373.5" rx="1.5" transform="rotate(45, 445, 375)" opacity="0.81"></rect><rect width="543" height="3" x="-134.5" y="149.5" rx="1.5" transform="rotate(45, 137, 151)" opacity="0.45"></rect><rect width="330" height="3" x="237" y="646.5" rx="1.5" transform="rotate(45, 402, 648)" opacity="0.31"></rect><rect width="140" height="3" x="121" y="728.5" rx="1.5" transform="rotate(45, 191, 730)" opacity="0.30"></rect><rect width="177" height="3" x="98.5" y="312.5" rx="1.5" transform="rotate(45, 187, 314)" opacity="0.88"></rect><rect width="298" height="3" x="144" y="521.5" rx="1.5" transform="rotate(45, 293, 523)" opacity="0.78"></rect><rect width="433" height="3" x="73.5" y="465.5" rx="1.5" transform="rotate(45, 290, 467)" opacity="0.89"></rect><rect width="301" height="3" x="238.5" y="710.5" rx="1.5" transform="rotate(45, 389, 712)" opacity="0.90"></rect><rect width="312" height="3" x="619" y="284.5" rx="1.5" transform="rotate(45, 775, 286)" opacity="0.71"></rect><rect width="129" height="3" x="447.5" y="20.5" rx="1.5" transform="rotate(45, 512, 22)" opacity="0.60"></rect><rect width="258" height="3" x="75" y="583.5" rx="1.5" transform="rotate(45, 204, 585)" opacity="0.44"></rect><rect width="221" height="3" x="196.5" y="260.5" rx="1.5" transform="rotate(45, 307, 262)" opacity="0.47"></rect><rect width="384" height="3" x="128" y="334.5" rx="1.5" transform="rotate(45, 320, 336)" opacity="0.33"></rect><rect width="284" height="3" x="421" y="302.5" rx="1.5" transform="rotate(45, 563, 304)" opacity="0.44"></rect><rect width="189" height="3" x="-77.5" y="767.5" rx="1.5" transform="rotate(45, 17, 769)" opacity="0.63"></rect><rect width="381" height="3" x="408.5" y="166.5" rx="1.5" transform="rotate(45, 599, 168)" opacity="0.16"></rect><rect width="317" height="3" x="330.5" y="71.5" rx="1.5" transform="rotate(45, 489, 73)" opacity="0.34"></rect><rect width="530" height="3" x="268" y="220.5" rx="1.5" transform="rotate(45, 533, 222)" opacity="0.68"></rect><rect width="183" height="3" x="315.5" y="44.5" rx="1.5" transform="rotate(45, 407, 46)" opacity="0.19"></rect><rect width="57" height="3" x="226.5" y="365.5" rx="1.5" transform="rotate(45, 255, 367)" opacity="0.57"></rect><rect width="217" height="3" x="240.5" y="767.5" rx="1.5" transform="rotate(45, 349, 769)" opacity="0.37"></rect><rect width="114" height="3" x="186" y="773.5" rx="1.5" transform="rotate(45, 243, 775)" opacity="0.25"></rect><rect width="59" height="3" x="602.5" y="349.5" rx="1.5" transform="rotate(45, 632, 351)" opacity="0.71"></rect><rect width="348" height="3" x="577" y="198.5" rx="1.5" transform="rotate(45, 751, 200)" opacity="0.23"></rect><rect width="196" height="3" x="487" y="570.5" rx="1.5" transform="rotate(45, 585, 572)" opacity="0.21"></rect><rect width="350" height="3" x="364" y="733.5" rx="1.5" transform="rotate(45, 539, 735)" opacity="0.64"></rect><rect width="264" height="3" x="-71" y="763.5" rx="1.5" transform="rotate(45, 61, 765)" opacity="0.82"></rect><rect width="142" height="3" x="241" y="576.5" rx="1.5" transform="rotate(45, 312, 578)" opacity="0.22"></rect><rect width="440" height="3" x="273" y="449.5" rx="1.5" transform="rotate(45, 493, 451)" opacity="0.11"></rect><rect width="173" height="3" x="-60.5" y="582.5" rx="1.5" transform="rotate(45, 26, 584)" opacity="0.21"></rect><rect width="339" height="3" x="-49.5" y="745.5" rx="1.5" transform="rotate(45, 120, 747)" opacity="0.83"></rect><rect width="70" height="3" x="276" y="401.5" rx="1.5" transform="rotate(45, 311, 403)" opacity="0.15"></rect><rect width="87" height="3" x="425.5" y="611.5" rx="1.5" transform="rotate(45, 469, 613)" opacity="0.25"></rect><rect width="313" height="3" x="326.5" y="532.5" rx="1.5" transform="rotate(45, 483, 534)" opacity="0.14"></rect><rect width="139" height="3" x="40.5" y="370.5" rx="1.5" transform="rotate(45, 110, 372)" opacity="0.90"></rect><rect width="522" height="3" x="-23" y="650.5" rx="1.5" transform="rotate(45, 238, 652)" opacity="0.12"></rect><rect width="510" height="3" x="338" y="485.5" rx="1.5" transform="rotate(45, 593, 487)" opacity="0.43"></rect><rect width="343" height="3" x="509.5" y="762.5" rx="1.5" transform="rotate(45, 681, 764)" opacity="0.46"></rect><rect width="236" height="3" x="80" y="500.5" rx="1.5" transform="rotate(45, 198, 502)" opacity="0.50"></rect><rect width="319" height="3" x="92.5" y="290.5" rx="1.5" transform="rotate(45, 252, 292)" opacity="0.81"></rect><rect width="286" height="3" x="630" y="778.5" rx="1.5" transform="rotate(45, 773, 780)" opacity="0.85"></rect><rect width="90" height="3" x="-11" y="353.5" rx="1.5" transform="rotate(45, 34, 355)" opacity="0.97"></rect><rect width="321" height="3" x="607.5" y="429.5" rx="1.5" transform="rotate(45, 768, 431)" opacity="0.41"></rect><rect width="215" height="3" x="409.5" y="774.5" rx="1.5" transform="rotate(45, 517, 776)" opacity="0.99"></rect><rect width="212" height="3" x="346" y="22.5" rx="1.5" transform="rotate(45, 452, 24)" opacity="0.58"></rect><rect width="259" height="3" x="-34.5" y="43.5" rx="1.5" transform="rotate(45, 95, 45)" opacity="0.28"></rect><rect width="224" height="3" x="-57" y="643.5" rx="1.5" transform="rotate(45, 55, 645)" opacity="0.20"></rect><rect width="334" height="3" x="-111" y="430.5" rx="1.5" transform="rotate(45, 56, 432)" opacity="0.32"></rect></g></svg>