<?xml version="1.0" encoding="utf-8"?>
<!-- Generator: Adobe Illustrator 23.0.2, SVG Export Plug-In . SVG Version: 6.00 Build 0)  -->
<svg version="1.1" id="Layer_1" xmlns="http://www.w3.org/2000/svg" xmlns:xlink="http://www.w3.org/1999/xlink" x="0px" y="0px"
	 viewBox="0 0 2500 838.693" style="enable-background:new 0 0 2500 838.693;" xml:space="preserve">
<style type="text/css">
	.st0{fill:#F01525;}
</style>
<g>
	<path class="st0" d="M1249.154,0c-139.554,0-252.692,105.68-252.692,236.037c0,114.358,87.073,209.712,202.666,231.4
		c22.649,4.652,36.269,10.097,43.163,19.934c16.686-27.499,14.718-113.885,14.718-141.384c0-23.549,14.718-15.694,27.484-8.831
		l54.007,28.475c2.944-14.733,21.597-15.709,33.386-10.798l22.573,5.887l-10.813-22.588c-7.855-14.718-3.935-26.508,4.896-31.403
		l-18.638-14.733c-14.733-9.822-5.918-19.644,14.733-27.499l33.371-15.694c-19.614-13.727-5.902-29.467,2.944-41.241l18.668-24.54
		l-42.202-0.991c-20.651-1.952-25.531-8.831-25.531-21.597l-42.247,28.475c-19.629,12.766-32.395,0-30.427-22.573l6.863-53.031
		c-19.629,10.814-32.395-2.928-37.291-16.685c0,0-14.733-28.475-19.629-43.193c-4.911,14.718-19.629,43.193-19.629,43.193
		c-4.911,13.757-17.677,27.499-37.321,16.685l6.894,53.031c1.952,22.573-10.798,35.338-30.443,22.573l-42.217-28.475
		c0,12.766-4.911,19.644-25.532,21.597l-42.217,0.991l18.653,24.54c8.846,11.774,22.588,27.499,2.944,41.241l33.386,15.694
		c20.62,7.855,29.466,17.677,14.733,27.499l-18.668,14.733c8.846,4.896,12.766,16.685,4.911,31.403l-10.798,22.588l22.588-5.887
		c11.774-4.911,30.427-3.935,33.371,10.798l53.991-28.475c12.766-6.863,27.499-14.718,27.499,8.831
		c0,24.54,4.087,80.804-13.65,97.352c-112.604-10.158-200.653-99.091-200.653-207.303c0-115.029,99.472-208.263,222.158-208.263
		s222.127,93.234,222.127,208.263c0,107.251-85.471,195.574-196.626,207.013l0.32,27.819
		c127.429-12.095,226.871-112.619,226.871-234.832C1501.861,105.68,1388.708,0,1249.154,0z M2500,830.247
		c-4.987-6.97-11.439-16.914-14.932-25.852l-44.245-115.883c-2.486-6.97-2.99-17.906-2.99-22.374h-72.095
		c0,5.963,0.961,16.884-2.99,25.852l-49.248,118.354c-2.974,6.97-6.452,11.439-12.934,19.904h47.738l11.439-31.846h74.108
		l0.015-0.564l10.92,32.41L2500,830.247L2500,830.247z M2369.688,771.558l28.841-78.577l26.477,78.577H2369.688z M1863.42,688.512
		c-2.471-6.97-2.959-17.906-2.959-22.374h-72.126c0,5.963,0.991,16.884-2.989,25.852l-49.233,118.354
		c-2.989,6.97-6.452,11.439-12.934,19.904h47.753l11.439-31.846h74.078l0.061-0.442l10.905,32.288h55.181
		c-4.957-6.97-11.439-16.914-14.916-25.852L1863.42,688.512L1863.42,688.512z M1792.316,771.558l28.856-78.577l26.462,78.577
		H1792.316z M1271.299,688.512c-2.486-6.97-2.974-17.906-2.974-22.374h-72.126c0,5.963,1.007,16.884-2.974,25.852l-49.248,118.354
		c-2.974,6.97-6.467,11.439-12.918,19.904h47.738l11.424-31.846h74.109l-8.953-26.843h-55.196l28.841-78.577l46.259,137.266h55.196
		c-4.972-6.97-11.439-16.914-14.932-25.852L1271.299,688.512L1271.299,688.512z M140.24,688.512
		c-2.486-6.97-2.989-17.906-2.989-22.374H65.156c0,5.963,0.991,16.884-2.989,25.852L12.934,810.344
		C9.944,817.314,6.467,821.783,0,830.247h47.738l11.439-31.846h74.109l-8.953-26.843H69.136l28.841-78.577l46.243,137.266h55.212
		c-4.987-6.97-11.439-16.914-14.932-25.852L140.24,688.512L140.24,688.512z M363.527,666.138h-58.674
		c1.495,4.469,4.484,11.439,4.484,21.871v119.864c0,10.432-2.989,17.402-4.484,22.374h58.674
		c-1.479-4.972-4.469-11.942-4.469-22.374V688.009C359.058,677.577,362.047,670.607,363.527,666.138L363.527,666.138z
		 M2118.873,666.138h-87.515c1.51,4.469,4.484,11.439,4.484,21.871v119.864c0,10.432-2.974,17.402-4.484,22.374h87.515
		c72.629,0,86.066-50.224,86.066-82.573C2204.923,715.371,2191.502,666.138,2118.873,666.138z M2104.459,803.877h-18.897V692.463
		h18.897c20.865,0,49.233,7.946,49.233,55.7S2125.339,803.877,2104.459,803.877z M1617.759,666.138h-43.285v89.513l-76.061-89.513
		h-60.184c1.495,4.469,4.469,11.439,4.469,21.871v119.864c0,10.432-2.974,17.402-4.469,22.374h43.254V720.861l93.006,109.386h43.285
		c-1.51-4.972-4.469-11.942-4.469-22.374V688.009C1613.291,677.577,1616.265,670.607,1617.759,666.138L1617.759,666.138z
		 M1018.5,658.665c-8.938-2.562-24.372-4.621-39.289-4.469c-48.242,0.503-103.941,33.34-103.941,93.982
		c0,60.687,55.7,90.016,103.941,90.504c14.916,0.183,30.351-1.906,39.289-4.438c10.432-3.005,21.383-4.499,24.876-3.996v-40.783
		c-8.465,7.946-29.848,16.411-51.231,16.411c-21.383,0-63.158-15.938-62.67-57.698c0-51.2,41.287-61.16,62.67-61.16
		c21.383,0,41.271,6.467,51.231,14.413v-38.816C1038.389,663.133,1028.933,661.639,1018.5,658.665z M630.586,766.083
		c24.876-9.441,34.82-33.813,34.317-55.669c-0.488-21.902-20.88-44.261-48.729-44.261H496.828
		c1.479,4.469,4.469,11.439,4.469,21.871v119.864c0,10.432-2.989,17.402-4.469,22.374h54.19v-58.689h31.831l31.342,58.689h59.177
		c-8.953-8.968-15.435-18.882-19.919-25.379L630.586,766.083L630.586,766.083z M583.854,743.205h-32.837v-51.2h37.809
		c17.906,0,25.852,12.415,25.852,23.854S606.229,743.205,583.854,743.205z"/>
</g>
</svg>
