<?xml version="1.0" encoding="UTF-8" standalone="no"?>
<!-- Generator: Adobe Illustrator 14.0.0, SVG Export Plug-In . SVG Version: 6.00 Build 43363)  -->

<svg
   xmlns:dc="http://purl.org/dc/elements/1.1/"
   xmlns:cc="http://creativecommons.org/ns#"
   xmlns:rdf="http://www.w3.org/1999/02/22-rdf-syntax-ns#"
   xmlns:svg="http://www.w3.org/2000/svg"
   xmlns="http://www.w3.org/2000/svg"
   xmlns:sodipodi="http://sodipodi.sourceforge.net/DTD/sodipodi-0.dtd"
   xmlns:inkscape="http://www.inkscape.org/namespaces/inkscape"
   version="1.1"
   id="Layer_1"
   x="0px"
   y="0px"
   width="646"
   height="101"
   viewBox="0 0 646.00003 101"
   enable-background="new 0 0 595.22 842"
   xml:space="preserve"
   inkscape:version="0.47 r22583"
   sodipodi:docname="Air France.svg"><metadata
   id="metadata1595"><rdf:RDF><cc:Work
       rdf:about=""><dc:format>image/svg+xml</dc:format><dc:type
         rdf:resource="http://purl.org/dc/dcmitype/StillImage" /></cc:Work></rdf:RDF></metadata><defs
   id="defs1593"><inkscape:perspective
     sodipodi:type="inkscape:persp3d"
     inkscape:vp_x="0 : 421 : 1"
     inkscape:vp_y="0 : 1000 : 0"
     inkscape:vp_z="595.21997 : 421 : 1"
     inkscape:persp3d-origin="297.60999 : 280.66667 : 1"
     id="perspective1597" /></defs><sodipodi:namedview
   pagecolor="#ffffff"
   bordercolor="#666666"
   borderopacity="1"
   objecttolerance="10"
   gridtolerance="10"
   guidetolerance="10"
   inkscape:pageopacity="0"
   inkscape:pageshadow="2"
   inkscape:window-width="715"
   inkscape:window-height="942"
   id="namedview1591"
   showgrid="false"
   inkscape:zoom="0.95201239"
   inkscape:cx="323"
   inkscape:cy="50.499234"
   inkscape:window-x="0"
   inkscape:window-y="0"
   inkscape:window-maximized="0"
   inkscape:current-layer="Layer_1" />











































































<rect
   style="fill:#1b3e94"
   x="87.570488"
   y="0.080351092"
   width="26.184412"
   height="41.392944"
   id="rect537" /><polyline
   style="fill:#1b3e94"
   points="230.703,151.893 230.703,147.243 206.958,147.243 206.958,163.516 218.081,163.516   218.081,158.701 229.54,158.701 229.54,154.218 218.081,154.218 218.081,151.893 230.703,151.893 "
   id="polyline539"
   transform="matrix(2.5436577,0,0,2.5436577,-300.88927,-374.45543)" /><path
   style="fill:#1b3e94"
   d="m 162.15563,17.835091 c 1.65084,0 2.9888,-1.322702 2.9888,-2.968448 0,-1.650834 -1.33796,-2.973536 -2.9888,-2.973536 h -13.48647 v 5.941984 h 13.48647 m 29.59292,23.638211 H 162.18361 L 148.66916,26.689564 V 41.473302 H 123.32924 V 0.00150733 h 53.79836 c 7.74035,0 14.0181,5.64692007 14.0181,12.71320167 0,7.063737 -6.27775,12.794598 -14.0181,12.794598 l 14.62095,15.963995 z"
   id="path541" /><path
   style="fill:#1b3e94"
   d="m 331.66498,17.835091 c 1.64575,0 2.98626,-1.322702 2.98626,-2.968448 0,-1.650834 -1.34051,-2.973536 -2.98626,-2.973536 h -13.48901 v 5.941984 h 13.48901 M 361.2579,41.473302 H 331.69042 L 318.17597,26.689564 V 41.473302 H 292.83605 V 0.00150733 h 53.79836 c 7.74035,0 14.01301,5.64692007 14.01301,12.71320167 0,7.063737 -6.27266,12.794598 -14.01301,12.794598 l 14.62349,15.963995 z"
   id="path543" /><path
   style="fill:#1b3e94"
   d="M 34.209652,26.267317 H 46.879611 L 42.344269,11.908369 h -3.383065 l -4.751552,14.358948 m -3.166854,9.291981 -2.324903,5.914004 H -6.6699999e-7 L 17.742012,0.08036072 H 63.352338 L 81.091807,41.473302 H 52.373911 l -2.324903,-5.914004 h -19.00621 z"
   id="path545" /><path
   style="fill:#1b3e94"
   d="m 399.69511,26.267317 h 12.66741 l -4.54043,-14.358948 h -3.37797 l -4.74901,14.358948 m -3.17194,9.291981 -2.32236,5.914004 H 365.48546 L 383.21729,0.08036072 h 45.61796 L 446.57726,41.473302 h -28.72044 l -2.32236,-5.914004 h -19.01129 z"
   id="path547" /><polyline
   style="fill:#1b3e94"
   points="304.254,155.878 310.542,163.516 320.187,163.516 320.187,147.243 311.283,147.243 311.283,154.55   304.949,147.243 295.39,147.243 295.39,163.516 304.254,163.516 304.254,155.878 "
   id="polyline549"
   transform="matrix(2.5436577,0,0,2.5436577,-300.88927,-374.45543)" /><path
   style="fill:#1b3e94"
   d="m 546.10805,20.778103 c 0,13.092207 35.90372,5.911461 35.90372,5.911461 v 9.080858 c 0,0 -6.3337,5.70288 -24.71163,5.70288 -25.5485,0 -37.79621,-9.291981 -37.79621,-20.695199 0,-11.403217 12.24771,-20.69774228 37.79621,-20.69774228 18.16426,0 24.71163,5.70033688 24.71163,5.70033688 v 9.0859454 c 0,0 -35.90372,-7.6055366 -35.90372,5.91146"
   id="path551" /><polyline
   style="fill:#1b3e94"
   points="360.964,156.958 371.093,156.958 371.093,153.554 360.964,153.554 360.964,151.893   372.255,151.893 372.255,147.243 350.505,147.243 350.505,163.516 372.255,163.516 372.255,158.866 360.964,158.866   360.964,156.958 "
   id="polyline553"
   transform="matrix(2.5436577,0,0,2.5436577,-300.88927,-374.45543)" /><polyline
   style="fill:#1b3e94"
   points="179.774,186.918 191.938,171.955 251.243,171.955 239.075,186.918 179.774,186.918 "
   id="polyline555"
   transform="matrix(2.5436577,0,0,2.5436577,-300.88927,-374.45543)" /><polyline
   style="fill:#1b3e94"
   points="244.776,186.918 256.945,171.955 279.03,171.955 266.862,186.918 244.776,186.918 "
   id="polyline557"
   transform="matrix(2.5436577,0,0,2.5436577,-300.88927,-374.45543)" /><polyline
   style="fill:#1b3e94"
   points="275.777,186.918 287.943,171.955 299.096,171.955 286.93,186.918 275.777,186.918 "
   id="polyline559"
   transform="matrix(2.5436577,0,0,2.5436577,-300.88927,-374.45543)" /><polyline
   style="fill:#ef4135"
   points="321.114,186.918 333.282,171.955 372.093,171.955 359.927,186.918 321.114,186.918 "
   id="polyline561"
   transform="matrix(2.5436577,0,0,2.5436577,-300.88927,-374.45543)" /><polyline
   style="fill:#1b3e94"
   points="299.814,186.918 311.98,171.955 318.282,171.955 306.117,186.918 299.814,186.918 "
   id="polyline563"
   transform="matrix(2.5436577,0,0,2.5436577,-300.88927,-374.45543)" />





























































































































</svg>