<?xml version="1.0" encoding="UTF-8" standalone="no"?>
<!-- Created with Inkscape (http://www.inkscape.org/) -->

<svg
   xmlns:dc="http://purl.org/dc/elements/1.1/"
   xmlns:cc="http://creativecommons.org/ns#"
   xmlns:rdf="http://www.w3.org/1999/02/22-rdf-syntax-ns#"
   xmlns:svg="http://www.w3.org/2000/svg"
   xmlns="http://www.w3.org/2000/svg"
   xmlns:xlink="http://www.w3.org/1999/xlink"
   xmlns:sodipodi="http://sodipodi.sourceforge.net/DTD/sodipodi-0.dtd"
   xmlns:inkscape="http://www.inkscape.org/namespaces/inkscape"
   width="1000"
   height="153.86485"
   id="svg2"
   version="1.1"
   sodipodi:docname="British_Airways.svg"
   inkscape:version="0.92.4 (5da689c313, 2019-01-14)">
  <metadata
     id="metadata750">
    <rdf:RDF>
      <cc:Work
         rdf:about="">
        <dc:format>image/svg+xml</dc:format>
        <dc:type
           rdf:resource="http://purl.org/dc/dcmitype/StillImage" />
        <dc:title></dc:title>
      </cc:Work>
    </rdf:RDF>
  </metadata>
  <sodipodi:namedview
     pagecolor="#ffffff"
     bordercolor="#111111"
     borderopacity="1"
     objecttolerance="10"
     gridtolerance="10"
     guidetolerance="10"
     inkscape:pageopacity="0"
     inkscape:pageshadow="2"
     inkscape:window-width="1920"
     inkscape:window-height="1017"
     id="namedview748"
     showgrid="false"
     fit-margin-top="0"
     fit-margin-left="0"
     fit-margin-right="0"
     fit-margin-bottom="0"
     inkscape:zoom="0.96244784"
     inkscape:cx="480.60879"
     inkscape:cy="-39.797842"
     inkscape:window-x="1912"
     inkscape:window-y="-8"
     inkscape:window-maximized="1"
     inkscape:current-layer="layer1">
    <inkscape:grid
       type="xygrid"
       id="grid763"
       originx="1510.1951"
       originy="877.81219" />
  </sodipodi:namedview>
  <defs
     id="defs4">
    <linearGradient
       inkscape:collect="always"
       id="linearGradient840">
      <stop
         style="stop-color:#e0162b;stop-opacity:1"
         offset="0"
         id="stop836" />
      <stop
         id="stop848"
         offset="0.66310126"
         style="stop-color:#fb040d;stop-opacity:1" />
      <stop
         id="stop846"
         offset="0.78415883"
         style="stop-color:#ffb6b9;stop-opacity:1" />
      <stop
         id="stop844"
         offset="0.79981589"
         style="stop-color:#ffb4b7;stop-opacity:1" />
      <stop
         style="stop-color:#ffa6a9;stop-opacity:1"
         offset="0.813824"
         id="stop850" />
      <stop
         id="stop852"
         offset="0.84738469"
         style="stop-color:#ff0109;stop-opacity:1" />
      <stop
         style="stop-color:#ff0106;stop-opacity:1"
         offset="1"
         id="stop838" />
    </linearGradient>
    <linearGradient
       inkscape:collect="always"
       id="linearGradient832">
      <stop
         style="stop-color:#4266ae;stop-opacity:1"
         offset="0"
         id="stop828" />
      <stop
         style="stop-color:#152b74;stop-opacity:1"
         offset="1"
         id="stop830" />
    </linearGradient>
    <linearGradient
       gradientTransform="matrix(-5.6004,9.7002,9.7002,5.6004,-5396.3892,-2844.7085)"
       y2="595.25928"
       x2="1"
       y1="595.25928"
       x1="0"
       gradientUnits="userSpaceOnUse"
       id="linearGradient826">
      <stop
         id="stop810"
         style="stop-color:#E1E3F3"
         offset="0" />
      <stop
         id="stop812"
         style="stop-color:#CFD4EB"
         offset="0.038" />
      <stop
         id="stop814"
         style="stop-color:#98A9D5"
         offset="0.16" />
      <stop
         id="stop816"
         style="stop-color:#708AC5"
         offset="0.2654" />
      <stop
         id="stop818"
         style="stop-color:#5877BB"
         offset="0.3488" />
      <stop
         id="stop820"
         style="stop-color:#4F70B7"
         offset="0.4" />
      <stop
         id="stop822"
         style="stop-color:#0054A6"
         offset="0.9" />
      <stop
         id="stop824"
         style="stop-color:#00ff00;stop-opacity:1"
         offset="1" />
    </linearGradient>
    <linearGradient
       y2="595.25928"
       x2="1"
       y1="595.25928"
       x1="0"
       gradientTransform="matrix(-5615.119,9725.6941,9725.6941,5615.119,-5740037.8,-3362803.1)"
       gradientUnits="userSpaceOnUse"
       id="linearGradient8843"
       xlink:href="#SVGID_28_"
       inkscape:collect="always" />
    <linearGradient
       id="SVGID_28_"
       gradientUnits="userSpaceOnUse"
       x1="0"
       y1="595.25928"
       x2="1"
       y2="595.25928"
       gradientTransform="matrix(-5.6004,9.7002,9.7002,5.6004,-5396.3892,-2844.7085)">
      <stop
         offset="0"
         style="stop-color:#E1E3F3"
         id="stop5799" />
      <stop
         offset="0.038"
         style="stop-color:#CFD4EB"
         id="stop5801" />
      <stop
         offset="0.16"
         style="stop-color:#98A9D5"
         id="stop5803" />
      <stop
         offset="0.2654"
         style="stop-color:#708AC5"
         id="stop5805" />
      <stop
         offset="0.3488"
         style="stop-color:#5877BB"
         id="stop5807" />
      <stop
         offset="0.4"
         style="stop-color:#4F70B7"
         id="stop5809" />
      <stop
         offset="0.9"
         style="stop-color:#0054A6"
         id="stop5811" />
      <stop
         offset="1"
         style="stop-color:#0054A6"
         id="stop5813" />
    </linearGradient>
    <linearGradient
       inkscape:collect="always"
       xlink:href="#SVGID_28_"
       id="linearGradient3822"
       gradientUnits="userSpaceOnUse"
       gradientTransform="matrix(-5615.119,9725.6941,9725.6941,5615.119,-5740037.8,-3362803.1)"
       x1="0"
       y1="595.25928"
       x2="1"
       y2="595.25928" />
    <linearGradient
       inkscape:collect="always"
       xlink:href="#linearGradient832"
       id="linearGradient834"
       x1="2654.6045"
       y1="1402.5764"
       x2="3111.772"
       y2="1151.1342"
       gradientUnits="userSpaceOnUse"
       gradientTransform="matrix(0.21464242,0,0,0.21464242,-1173.8699,1311.1124)" />
    <linearGradient
       inkscape:collect="always"
       xlink:href="#linearGradient840"
       id="linearGradient842"
       x1="1365.8719"
       y1="1125.1863"
       x2="3104.1453"
       y2="410.77798"
       gradientUnits="userSpaceOnUse"
       gradientTransform="matrix(0.21464242,0,0,0.21464242,-1173.8699,1311.1124)" />
  </defs>
  <g
     inkscape:label="Layer 1"
     inkscape:groupmode="layer"
     id="layer1"
     transform="translate(1494.6948,-1515.5816)">
    <path
       style="fill:#00054c;fill-opacity:1;stroke-width:9.08777714"
       d="m -1494.6948,1600.3794 c 2.1811,1.1815 3.1714,3.7532 3.1714,6.1161 v 55.6718 c 0,2.2628 -0.9903,4.9163 -3.1714,6.034 v 0.01 h 28.799 c 11.2235,0 27.1724,-3.8895 27.1724,-19.1025 0,-10.6417 -9.3239,-16.5398 -18.966,-16.449 6.6976,-1.2632 12.9044,-6.8795 12.9044,-14.0043 0,-13.4409 -11.5415,-18.2753 -23.3738,-18.2753 z m 21.4835,5.8433 c 8.0427,0 14.3311,2.7171 14.3311,12.0684 0,9.4241 -7.8698,11.9325 -15.9942,11.9325 h -2.6902 v -23.7281 c 2.2719,-0.2727 3.1264,-0.2728 4.3533,-0.2728 z m 1.6903,30.117 c 8.5607,0 16.7486,2.3175 16.7486,12.5776 0,10.3964 -6.9248,13.4316 -13.7316,13.4316 -2.9353,0 -6.1162,-0.1819 -9.0606,-0.7636 v -25.0641 c 2.3628,-0.1817 4.1079,-0.1815 6.0436,-0.1815 z"
       id="path803"
       inkscape:connector-curvature="0" />
    <path
       style="fill:#00054c;fill-opacity:1;stroke-width:9.08777714"
       d="m -1433.1069,1600.3882 c 2.1356,1.1814 3.1534,3.7533 3.1534,6.116 v 55.6719 c 0,2.3719 -1.0178,4.9167 -3.1534,6.0344 h 20.3656 c -2.1902,-1.0178 -3.2171,-3.7716 -3.2171,-6.0344 v -25.9272 c 8.8334,0.1 12.2593,9.2419 16.1943,15.867 2.5355,4.0804 8.9154,14.4768 13.532,15.849 2.481,0.7362 5.3433,0.6364 7.9515,0.6364 4.353,0 8.7152,-0.5182 12.8956,-1.7451 -15.5946,-0.1 -23.8825,-33.2158 -38.0049,-33.2976 9.9239,0 18.8209,-5.507 18.8209,-16.267 0,-12.8228 -13.3504,-16.9034 -24.0194,-16.9034 z m 20.6291,5.8345 c 7.4611,0 13.0137,3.0173 13.0137,11.5053 0,8.2881 -5.6435,12.5048 -13.2772,12.5048 -1.0996,0 -2.1083,-0.109 -3.2171,-0.1908 v -23.4558 c 1.1996,-0.1726 2.2629,-0.3635 3.4806,-0.3635 z"
       id="path797"
       inkscape:connector-curvature="0" />
    <path
       style="fill:#00054c;fill-opacity:1;stroke-width:9.08777714"
       d="m -1364.3671,1668.2014 c 1.6812,-0.7634 3.4442,-2.9899 3.4442,-6.0343 v -55.6717 c 0,-3.0898 -1.763,-5.28 -3.4442,-6.1161 h 20.8746 c -1.7994,0.8361 -3.4261,3.0263 -3.4261,6.1161 v 55.6717 c 0,3.0444 1.6267,5.2709 3.4261,6.0343 z"
       id="path793"
       inkscape:connector-curvature="0" />
    <path
       style="fill:#00054c;fill-opacity:1;stroke-width:9.08777714"
       d="m -1319.0736,1668.2014 c 2.2356,-1.0178 3.3261,-3.6624 3.3261,-6.0343 v -54.0086 h -14.9857 c -3.4534,0 -7.5793,0.418 -10.551,2.1901 l 4.6621,-9.9693 h 49.7101 c 4.0259,0 8.1517,-0.1 12.0595,-0.9269 -1.8994,5.1164 -7.5338,8.8969 -10.7781,8.8969 -3.9441,-0.1 -10.4782,-0.3544 -16.1036,-0.3544 v 54.1722 c 0,2.3719 1.1724,5.0165 3.3716,6.0343 z"
       id="path791"
       inkscape:connector-curvature="0" />
    <path
       style="fill:#00054c;fill-opacity:1;stroke-width:9.08777714"
       d="m -1272.3715,1668.2014 c 1.663,-0.7634 3.417,-2.9899 3.417,-6.0343 v -55.6717 c 0,-3.0898 -1.754,-5.28 -3.417,-6.1161 h 20.8746 c -1.7812,0.8361 -3.4716,3.0263 -3.4716,6.1161 v 55.6717 c 0,3.0444 1.6904,5.2709 3.4716,6.0343 z"
       id="path789"
       inkscape:connector-curvature="0" />
    <path
       style="fill:#00054c;fill-opacity:1;stroke-width:9.08777714"
       d="m -1210.9443,1652.8521 c 0,-12.9227 -30.4259,-15.8309 -30.4259,-36.4511 0,-12.7682 12.1504,-16.9486 22.8285,-16.9486 4.762,0 11.6596,0.6543 16.0127,2.6536 l 0.7542,12.6865 c -2.6718,-5.5981 -9.3785,-9.6602 -15.6037,-9.6602 -4.9255,0 -10.0783,2.4446 -10.0783,8.0699 0,13.4044 30.9348,16.6669 30.9348,36.2057 0,14.1769 -12.3776,20.0385 -24.8824,20.0385 -6.5341,0 -15.431,-1.2541 -20.9473,-5.0256 -0.3362,-2.2628 -0.4907,-4.6529 -0.4907,-6.9702 0,-2.7718 0.2453,-5.5345 0.6543,-8.2608 3.4443,7.8336 10.56,13.9679 19.4569,13.9679 6.7613,0.01 11.7869,-2.9354 11.7869,-10.3056"
       id="path787"
       inkscape:connector-curvature="0" />
    <path
       style="fill:#00054c;fill-opacity:1;stroke-width:9.08777714"
       d="m -1145.7255,1668.2014 c 1.4722,-0.6634 3.0444,-2.9899 3.0444,-6.0343 v -25.2367 c -3.626,-0.409 -8.697,-0.5817 -14.3951,-0.5817 -5.7707,0 -10.878,0.1818 -14.604,0.5817 v 25.2367 c 0,3.0444 1.5358,5.2709 3.0262,6.0343 h -20.0931 c 1.4904,-0.6634 3.0808,-2.9899 3.0808,-6.0343 v -55.6717 c 0,-3.0898 -1.5904,-5.3709 -3.0808,-6.1161 h 20.0931 c -1.4904,0.7452 -3.0262,3.0263 -3.0262,6.1161 v 22.8012 c 3.726,0.3908 8.7424,0.5725 14.604,0.5725 5.6981,0 10.7691,-0.2362 14.3951,-0.5725 v -22.8012 c 0,-3.0898 -1.5722,-5.3709 -3.0444,-6.1161 h 20.0658 c -1.4995,0.7452 -2.9899,3.0263 -2.9899,6.1161 v 55.6717 c 0,3.0444 1.4904,5.2709 2.9899,6.0343 z"
       id="path5786"
       inkscape:connector-curvature="0" />
    <path
       style="fill:#00054c;fill-opacity:1;stroke-width:9.08777714"
       d="m -1076.8206,1600.3794 c 1.4268,0.7452 2.4898,2.2626 2.4898,3.853 l -0.1364,0.8363 -22.4466,57.9161 c -0.8543,2.0812 -2.599,4.1987 -4.6165,5.2165 h 13.6495 c -0.727,-0.3544 -1.5991,-0.8542 -1.5991,-1.8538 0,-0.4453 0.2815,-1.1359 1.0812,-3.1807 0,0 5.9707,-15.0765 6.5432,-16.5942 4.0168,-0.4271 8.1246,-0.5179 12.1868,-0.5179 4.2622,0 8.6242,-10e-5 12.8137,0.5179 0.6452,1.754 6.216,16.9122 6.216,16.9122 0.4998,1.2814 0.6543,1.9449 0.6543,2.3539 0,1.2087 -0.5904,1.6992 -1.2447,2.3626 h 19.4205 c -1.6631,-0.9269 -3.6624,-2.7719 -4.5894,-5.2801 l -22.8194,-62.5418 z m 7.8791,12.9044 9.5874,26.4 c -3.4534,0.409 -6.9704,0.4092 -10.5238,0.4092 -3.108,0 -6.2793,-0.073 -9.351,-0.4092 z"
       id="path783"
       inkscape:connector-curvature="0" />
    <path
       style="fill:#00054c;fill-opacity:1;stroke-width:9.08777714"
       d="m -1028.3678,1668.2014 c 1.6812,-0.7634 3.417,-2.9899 3.417,-6.0343 v -55.6717 c 0,-3.0898 -1.7358,-5.28 -3.417,-6.1161 h 20.8565 c -1.7813,0.8361 -3.4261,3.0263 -3.4261,6.1161 v 55.6717 c 0,3.0444 1.6448,5.2709 3.4261,6.0343 z"
       id="path779"
       inkscape:connector-curvature="0" />
    <path
       style="fill:#00054c;fill-opacity:1;stroke-width:9.08777714"
       d="m -996.4347,1600.3882 c 2.19015,1.1814 3.2078,3.7533 3.2078,6.116 v 55.6719 c 0,2.3719 -1.01765,4.9167 -3.2078,6.0344 h 20.34715 c -2.15381,-1.0178 -3.13499,-3.7716 -3.13499,-6.0344 v -25.9272 c 8.76968,0 13.88578,9.2419 17.81171,15.867 2.5355,4.0804 8.89712,14.4768 13.52277,15.849 2.53551,0.7362 5.34363,0.6364 7.94274,0.6364 4.38939,0 8.74234,-0.5182 12.95002,-1.7451 -14.52228,0 -23.34636,-32.4524 -37.97771,-33.2976 7.35203,0 17.08495,-5.507 17.08495,-16.267 0,-12.8228 -13.33154,-16.9034 -23.97333,-16.9034 z m 20.58354,5.8345 c 7.47925,0 13.05002,3.0173 13.05002,11.5053 0,8.2881 -5.63448,12.5048 -13.28641,12.5048 -1.06327,0 -2.05357,-0.109 -3.13499,-0.1908 v -23.4558 c 1.16324,-0.1726 2.24451,-0.3635 3.37138,-0.3635 z"
       id="path777"
       inkscape:connector-curvature="0" />
    <path
       style="fill:#00054c;fill-opacity:1;stroke-width:9.08777714"
       d="m -855.24539,1606.9952 -20.60198,61.2062 c -1.70853,0 -3.38068,-0.5816 -4.32581,-1.2541 -2.02655,-1.963 -5.23451,-10.1511 -6.39776,-13.1773 l -9.30587,-23.5464 -13.42266,37.9778 h -6.37963 l -23.07386,-61.3516 c -0.98148,-2.6172 -2.68087,-5.1164 -5.19821,-6.4705 h 20.04764 c -0.83607,0.6452 -1.42675,1.3904 -1.42675,2.8263 l 0.59068,2.3538 15.02207,40.595 15.98543,-45.766 17.61209,44.1212 13.34997,-39.9408 c 0.32716,-1.0906 0.52707,-1.4904 0.52707,-2.172 0,-0.8361 -0.36349,-1.3632 -1.19959,-2.0175 h 13.27727 c -2.46279,1.2905 -4.23494,4.0804 -5.0801,6.6159"
       id="path773"
       inkscape:connector-curvature="0" />
    <path
       style="fill:#00054c;fill-opacity:1;stroke-width:9.08777714"
       d="m -838.55425,1600.3794 c 1.46311,0.7452 2.52625,2.2626 2.52625,3.853 l -0.1272,0.8363 -22.51944,57.9161 c -0.84522,2.0812 -2.58118,4.1987 -4.60773,5.2165 h 13.65918 c -0.72702,-0.3544 -1.55431,-0.8542 -1.55431,-1.8538 0,-0.4453 0.22737,-1.1359 1.09074,-3.1807 0,0 5.92519,-15.0765 6.50682,-16.5942 4.04406,-0.4271 8.16073,-0.5179 12.16847,-0.5179 4.27123,0 8.62405,-10e-5 12.84079,0.5179 0.67254,1.754 6.20724,16.9122 6.20724,16.9122 0.40898,1.2814 0.61796,1.9449 0.61796,2.3539 0,1.2087 -0.53618,1.6992 -1.23591,2.3626 h 19.47523 c -1.66307,-0.9269 -3.68064,-2.7719 -4.62573,-5.2801 l -22.81065,-62.5418 z m 7.8787,12.9044 9.59705,26.4 c -3.4352,0.409 -6.98848,0.4092 -10.51458,0.4092 -3.0898,0 -6.26181,-0.073 -9.36983,-0.4092 z"
       id="path771"
       inkscape:connector-curvature="0" />
    <path
       style="fill:#00054c;fill-opacity:1;stroke-width:9.08777714"
       d="m -751.73292,1607.486 -16.05809,28.1902 v 26.4909 c 0,2.1447 0.88154,5.0165 3.02623,6.0343 h -19.98403 c 2.03567,-1.1178 2.97173,-3.9623 2.97173,-6.0343 v -26.5817 l -13.95885,-22.3832 c -1.24501,-2.0811 -7.07935,-11.8414 -14.17693,-11.8414 1.9266,-0.7361 7.80643,-1.8539 11.74143,-1.8539 6.57044,0 9.82388,0.5998 13.85884,6.9067 l 12.91372,20.4838 c 1.08144,-2.0174 11.31432,-19.8113 11.31432,-19.8113 1.23591,-2.1538 2.08111,-3.6805 2.08111,-4.4439 0,-0.9724 -0.41806,-1.6177 -1.40863,-2.2629 h 14.40411 c -2.83536,1.3541 -5.18003,4.4348 -6.72496,7.1067"
       id="path767"
       inkscape:connector-curvature="0" />
    <path
       style="fill:#00054c;fill-opacity:1;stroke-width:9.08777714"
       d="m -714.19578,1652.8521 c 0,-12.9227 -30.42589,-15.8309 -30.42589,-36.4511 0,-12.7682 12.10491,-16.9486 22.79213,-16.9486 4.78013,0 11.63238,0.6543 16.02173,2.6536 l 0.74521,12.6865 c -2.69906,-5.5981 -9.37858,-9.6602 -15.61281,-9.6602 -4.93467,0 -10.05106,2.4446 -10.05106,8.0699 0,13.4044 30.94388,16.6669 30.94388,36.2057 0,14.1769 -12.30484,20.0385 -24.89145,20.0385 -6.53411,0 -15.45829,-1.2541 -20.9746,-5.0256 -0.35442,-2.2628 -0.53614,-4.6529 -0.53614,-6.9702 0,-2.7718 0.26354,-5.5345 0.68156,-8.2608 3.44426,7.8336 10.5873,13.9679 19.4842,13.9679 6.78859,0.01 11.82324,-2.9354 11.82324,-10.3056"
       id="path5788"
       inkscape:connector-curvature="0" />
    <path
       style="fill:url(#linearGradient834);fill-opacity:1;stroke-width:1.39614964"
       clip-path="none"
       d="m -521.80188,1552.0673 -0.92509,0.9985 c -11.48775,11.4236 -36.38711,21.2349 -48.65356,25.8245 -16.73687,6.2935 -24.16642,8.5104 -33.52884,11.561 -10.60827,3.4353 -31.80655,9.8572 -31.80655,9.8572 43.92638,13.1276 74.88119,17.076 74.88119,17.076 0,0 14.4283,-4.4616 37.27553,-16.6823 12.37632,-6.2843 18.45901,-10.5073 22.8196,-14.5655 1.60314,-1.4475 5.74407,-5.7623 6.77927,-11.2955 0.0641,-0.403 0.26553,-1.4475 0.26553,-2.4826 l -0.0642,-1.374 -0.15564,-1.2186 c 0,0 -0.23814,-1.3099 -0.55875,-2.2351 -0.33897,-0.9161 -1.7497,-3.7559 -4.03992,-5.5789 -1.54819,-1.2551 -4.18675,-4.3606 -13.75986,-7.7318 -3.26126,-1.1268 -8.52869,-2.1529 -8.52869,-2.1529 z"
       id="polygon5815"
       inkscape:connector-curvature="0" />
    <path
       style="fill:url(#linearGradient842);fill-opacity:1;stroke-width:9.16087818"
       id="path5825"
       d="m -494.6948,1572.0564 c 0,0 -0.0641,-1.2184 -0.36648,-2.2536 -0.229,-0.9252 -0.65037,-1.8138 -1.26416,-2.7391 -0.74206,-1.0993 -1.74974,-2.391 -3.25211,-3.8201 -1.12679,-1.0718 -2.36351,-2.0062 -3.84757,-3.0047 -6.0004,-3.9301 -13.72302,-6.1378 -20.58447,-7.0631 -10.59915,-1.4107 -22.77401,-1.1634 -23.91906,-1.2184 -3.9209,-0.055 -29.20492,0.1649 -35.70912,0.2748 -28.85674,0.5955 -64.2086,0.6688 -73.46111,0.6688 -95.56627,0.4397 -137.16584,-1.6215 -183.45573,-10.9014 -39.3918,-7.8235 -61.24049,-15.2529 -61.24049,-15.2529 34.7289,-1.2001 237.44081,-9.6189 274.41415,-10.59 24.2122,-0.6779 41.398,-0.8336 55.15761,-0.046 7.05388,0.4123 13.61311,0.9985 21.84873,2.4093 7.39282,1.2642 14.10772,3.4079 18.01942,4.8645 8.23562,3.0322 15.17958,7.4477 18.60572,11.9732 0,0 1.01687,1.0443 2.39103,2.8765 1.54818,2.1437 3.33454,4.7912 3.93917,5.7805 5.02018,7.5853 7.39282,12.3672 8.2173,14.0162 0.89774,1.7497 1.68561,3.5727 2.45515,5.3408 0.75116,1.7589 1.06263,2.8398 1.30998,3.5819 0.52216,1.8688 0.65041,3.5727 0.6779,3.9575 z"
       clip-path="url(#SVGID_30_)"
       inkscape:connector-curvature="0" />
  </g>
</svg>
