<svg xmlns="http://www.w3.org/2000/svg" version="1.1" xmlns:xlink="http://www.w3.org/1999/xlink" xmlns:svgjs="http://svgjs.dev/svgjs" viewBox="0 0 800 800"><defs><linearGradient x1="50%" y1="0%" x2="50%" y2="100%" id="ffflurry-grad" gradientTransform="rotate(270)"><stop stop-color="hsl(51, 6%, 97%)" stop-opacity="1" offset="0%"></stop><stop stop-color="hsl(0, 0%, 0%)" stop-opacity="1" offset="45%"></stop><stop stop-color="hsl(9, 100%, 33%)" stop-opacity="1" offset="100%"></stop></linearGradient></defs><rect width="100%" height="100%" fill="hsl(51, 6%, 97%)"></rect><g fill="url(#ffflurry-grad)"><rect width="107" height="3" x="384.5" y="771.5" rx="1.5" transform="rotate(45, 438, 773)" opacity="0.10"></rect><rect width="131" height="3" x="123.5" y="278.5" rx="1.5" transform="rotate(45, 189, 280)" opacity="0.89"></rect><rect width="94" height="3" x="723" y="582.5" rx="1.5" transform="rotate(45, 770, 584)" opacity="0.10"></rect><rect width="62" height="3" x="480" y="45.5" rx="1.5" transform="rotate(45, 511, 47)" opacity="0.64"></rect><rect width="164" height="3" x="581" y="137.5" rx="1.5" transform="rotate(45, 663, 139)" opacity="0.83"></rect><rect width="136" height="3" x="-18" y="154.5" rx="1.5" transform="rotate(45, 50, 156)" opacity="0.78"></rect><rect width="61" height="3" x="94.5" y="730.5" rx="1.5" transform="rotate(45, 125, 732)" opacity="0.13"></rect><rect width="84" height="3" x="409" y="272.5" rx="1.5" transform="rotate(45, 451, 274)" opacity="0.78"></rect><rect width="75" height="3" x="140.5" y="603.5" rx="1.5" transform="rotate(45, 178, 605)" opacity="0.47"></rect><rect width="80" height="3" x="118" y="778.5" rx="1.5" transform="rotate(45, 158, 780)" opacity="0.56"></rect><rect width="39" height="3" x="532.5" y="180.5" rx="1.5" transform="rotate(45, 552, 182)" opacity="0.88"></rect><rect width="180" height="3" x="264" y="425.5" rx="1.5" transform="rotate(45, 354, 427)" opacity="0.53"></rect><rect width="157" height="3" x="214.5" y="262.5" rx="1.5" transform="rotate(45, 293, 264)" opacity="0.65"></rect><rect width="106" height="3" x="220" y="128.5" rx="1.5" transform="rotate(45, 273, 130)" opacity="0.51"></rect><rect width="188" height="3" x="-2" y="524.5" rx="1.5" transform="rotate(45, 92, 526)" opacity="0.43"></rect><rect width="158" height="3" x="259" y="684.5" rx="1.5" transform="rotate(45, 338, 686)" opacity="0.27"></rect><rect width="162" height="3" x="4" y="588.5" rx="1.5" transform="rotate(45, 85, 590)" opacity="0.82"></rect><rect width="135" height="3" x="699.5" y="188.5" rx="1.5" transform="rotate(45, 767, 190)" opacity="0.37"></rect><rect width="250" height="3" x="1" y="648.5" rx="1.5" transform="rotate(45, 126, 650)" opacity="0.47"></rect><rect width="66" height="3" x="-5" y="213.5" rx="1.5" transform="rotate(45, 28, 215)" opacity="0.54"></rect><rect width="33" height="3" x="468.5" y="218.5" rx="1.5" transform="rotate(45, 485, 220)" opacity="0.72"></rect><rect width="173" height="3" x="279.5" y="509.5" rx="1.5" transform="rotate(45, 366, 511)" opacity="0.34"></rect><rect width="108" height="3" x="666" y="456.5" rx="1.5" transform="rotate(45, 720, 458)" opacity="1.00"></rect><rect width="70" height="3" x="502" y="312.5" rx="1.5" transform="rotate(45, 537, 314)" opacity="0.42"></rect><rect width="124" height="3" x="-34" y="531.5" rx="1.5" transform="rotate(45, 28, 533)" opacity="0.76"></rect><rect width="164" height="3" x="161" y="306.5" rx="1.5" transform="rotate(45, 243, 308)" opacity="0.57"></rect><rect width="141" height="3" x="381.5" y="438.5" rx="1.5" transform="rotate(45, 452, 440)" opacity="0.38"></rect><rect width="237" height="3" x="507.5" y="450.5" rx="1.5" transform="rotate(45, 626, 452)" opacity="0.23"></rect><rect width="79" height="3" x="666.5" y="29.5" rx="1.5" transform="rotate(45, 706, 31)" opacity="0.87"></rect><rect width="138" height="3" x="631" y="226.5" rx="1.5" transform="rotate(45, 700, 228)" opacity="0.24"></rect><rect width="113" height="3" x="212.5" y="760.5" rx="1.5" transform="rotate(45, 269, 762)" opacity="0.51"></rect><rect width="58" height="3" x="405" y="633.5" rx="1.5" transform="rotate(45, 434, 635)" opacity="0.35"></rect><rect width="85" height="3" x="332.5" y="761.5" rx="1.5" transform="rotate(45, 375, 763)" opacity="0.52"></rect><rect width="204" height="3" x="465" y="52.5" rx="1.5" transform="rotate(45, 567, 54)" opacity="0.22"></rect><rect width="36" height="3" x="290" y="585.5" rx="1.5" transform="rotate(45, 308, 587)" opacity="0.21"></rect><rect width="85" height="3" x="290.5" y="366.5" rx="1.5" transform="rotate(45, 333, 368)" opacity="0.74"></rect><rect width="71" height="3" x="632.5" y="389.5" rx="1.5" transform="rotate(45, 668, 391)" opacity="0.59"></rect><rect width="148" height="3" x="277" y="104.5" rx="1.5" transform="rotate(45, 351, 106)" opacity="0.50"></rect><rect width="90" height="3" x="281" y="30.5" rx="1.5" transform="rotate(45, 326, 32)" opacity="0.54"></rect><rect width="122" height="3" x="186" y="643.5" rx="1.5" transform="rotate(45, 247, 645)" opacity="0.38"></rect><rect width="161" height="3" x="433.5" y="111.5" rx="1.5" transform="rotate(45, 514, 113)" opacity="0.93"></rect><rect width="81" height="3" x="131.5" y="226.5" rx="1.5" transform="rotate(45, 172, 228)" opacity="0.85"></rect><rect width="96" height="3" x="602" y="595.5" rx="1.5" transform="rotate(45, 650, 597)" opacity="0.29"></rect><rect width="122" height="3" x="574" y="208.5" rx="1.5" transform="rotate(45, 635, 210)" opacity="0.53"></rect><rect width="39" height="3" x="22.5" y="412.5" rx="1.5" transform="rotate(45, 42, 414)" opacity="0.45"></rect><rect width="82" height="3" x="557" y="610.5" rx="1.5" transform="rotate(45, 598, 612)" opacity="0.70"></rect><rect width="66" height="3" x="734" y="110.5" rx="1.5" transform="rotate(45, 767, 112)" opacity="0.49"></rect><rect width="119" height="3" x="141.5" y="84.5" rx="1.5" transform="rotate(45, 201, 86)" opacity="0.40"></rect><rect width="63" height="3" x="719.5" y="513.5" rx="1.5" transform="rotate(45, 751, 515)" opacity="0.13"></rect><rect width="101" height="3" x="237.5" y="689.5" rx="1.5" transform="rotate(45, 288, 691)" opacity="0.88"></rect><rect width="34" height="3" x="637" y="710.5" rx="1.5" transform="rotate(45, 654, 712)" opacity="0.73"></rect><rect width="67" height="3" x="435.5" y="24.5" rx="1.5" transform="rotate(45, 469, 26)" opacity="0.26"></rect><rect width="124" height="3" x="321" y="663.5" rx="1.5" transform="rotate(45, 383, 665)" opacity="0.57"></rect><rect width="37" height="3" x="80.5" y="222.5" rx="1.5" transform="rotate(45, 99, 224)" opacity="0.10"></rect><rect width="69" height="3" x="546.5" y="396.5" rx="1.5" transform="rotate(45, 581, 398)" opacity="0.71"></rect><rect width="156" height="3" x="275" y="274.5" rx="1.5" transform="rotate(45, 353, 276)" opacity="0.21"></rect><rect width="106" height="3" x="135" y="370.5" rx="1.5" transform="rotate(45, 188, 372)" opacity="0.36"></rect><rect width="111" height="3" x="727.5" y="488.5" rx="1.5" transform="rotate(45, 783, 490)" opacity="0.32"></rect><rect width="263" height="3" x="-16.5" y="119.5" rx="1.5" transform="rotate(45, 115, 121)" opacity="0.99"></rect><rect width="181" height="3" x="570.5" y="274.5" rx="1.5" transform="rotate(45, 661, 276)" opacity="0.09"></rect><rect width="162" height="3" x="549" y="22.5" rx="1.5" transform="rotate(45, 630, 24)" opacity="0.31"></rect><rect width="132" height="3" x="198" y="401.5" rx="1.5" transform="rotate(45, 264, 403)" opacity="0.68"></rect><rect width="48" height="3" x="283" y="461.5" rx="1.5" transform="rotate(45, 307, 463)" opacity="0.61"></rect><rect width="128" height="3" x="487" y="234.5" rx="1.5" transform="rotate(45, 551, 236)" opacity="0.39"></rect><rect width="87" height="3" x="501.5" y="600.5" rx="1.5" transform="rotate(45, 545, 602)" opacity="0.99"></rect><rect width="53" height="3" x="4.5" y="91.5" rx="1.5" transform="rotate(45, 31, 93)" opacity="0.94"></rect><rect width="190" height="3" x="-42" y="704.5" rx="1.5" transform="rotate(45, 53, 706)" opacity="0.81"></rect><rect width="204" height="3" x="88" y="454.5" rx="1.5" transform="rotate(45, 190, 456)" opacity="0.76"></rect><rect width="149" height="3" x="285.5" y="154.5" rx="1.5" transform="rotate(45, 360, 156)" opacity="0.79"></rect><rect width="147" height="3" x="402.5" y="321.5" rx="1.5" transform="rotate(45, 476, 323)" opacity="0.51"></rect><rect width="88" height="3" x="-19" y="371.5" rx="1.5" transform="rotate(45, 25, 373)" opacity="0.35"></rect><rect width="180" height="3" x="314" y="460.5" rx="1.5" transform="rotate(45, 404, 462)" opacity="0.84"></rect><rect width="118" height="3" x="353" y="399.5" rx="1.5" transform="rotate(45, 412, 401)" opacity="0.14"></rect><rect width="141" height="3" x="132.5" y="697.5" rx="1.5" transform="rotate(45, 203, 699)" opacity="0.41"></rect><rect width="70" height="3" x="508" y="430.5" rx="1.5" transform="rotate(45, 543, 432)" opacity="0.86"></rect><rect width="98" height="3" x="395" y="109.5" rx="1.5" transform="rotate(45, 444, 111)" opacity="0.76"></rect><rect width="165" height="3" x="687.5" y="33.5" rx="1.5" transform="rotate(45, 770, 35)" opacity="0.99"></rect><rect width="125" height="3" x="180.5" y="493.5" rx="1.5" transform="rotate(45, 243, 495)" opacity="0.53"></rect><rect width="197" height="3" x="469.5" y="733.5" rx="1.5" transform="rotate(45, 568, 735)" opacity="0.16"></rect><rect width="136" height="3" x="637" y="92.5" rx="1.5" transform="rotate(45, 705, 94)" opacity="0.46"></rect><rect width="46" height="3" x="681" y="167.5" rx="1.5" transform="rotate(45, 704, 169)" opacity="0.79"></rect><rect width="104" height="3" x="139" y="149.5" rx="1.5" transform="rotate(45, 191, 151)" opacity="0.50"></rect><rect width="103" height="3" x="479.5" y="379.5" rx="1.5" transform="rotate(45, 531, 381)" opacity="0.31"></rect><rect width="53" height="3" x="290.5" y="196.5" rx="1.5" transform="rotate(45, 317, 198)" opacity="0.76"></rect><rect width="138" height="3" x="85" y="34.5" rx="1.5" transform="rotate(45, 154, 36)" opacity="0.18"></rect><rect width="65" height="3" x="722.5" y="706.5" rx="1.5" transform="rotate(45, 755, 708)" opacity="0.88"></rect><rect width="42" height="3" x="612" y="660.5" rx="1.5" transform="rotate(45, 633, 662)" opacity="0.25"></rect><rect width="193" height="3" x="392.5" y="559.5" rx="1.5" transform="rotate(45, 489, 561)" opacity="0.41"></rect><rect width="163" height="3" x="430.5" y="768.5" rx="1.5" transform="rotate(45, 512, 770)" opacity="0.99"></rect><rect width="201" height="3" x="633.5" y="768.5" rx="1.5" transform="rotate(45, 734, 770)" opacity="0.65"></rect><rect width="53" height="3" x="276.5" y="521.5" rx="1.5" transform="rotate(45, 303, 523)" opacity="0.84"></rect><rect width="148" height="3" x="525" y="125.5" rx="1.5" transform="rotate(45, 599, 127)" opacity="0.61"></rect><rect width="197" height="3" x="375.5" y="703.5" rx="1.5" transform="rotate(45, 474, 705)" opacity="0.49"></rect><rect width="55" height="3" x="465.5" y="412.5" rx="1.5" transform="rotate(45, 493, 414)" opacity="0.32"></rect><rect width="130" height="3" x="530" y="181.5" rx="1.5" transform="rotate(45, 595, 183)" opacity="0.98"></rect><rect width="181" height="3" x="172.5" y="41.5" rx="1.5" transform="rotate(45, 263, 43)" opacity="0.72"></rect><rect width="123" height="3" x="614.5" y="514.5" rx="1.5" transform="rotate(45, 676, 516)" opacity="0.76"></rect><rect width="169" height="3" x="-7.5" y="314.5" rx="1.5" transform="rotate(45, 77, 316)" opacity="0.31"></rect><rect width="206" height="3" x="331" y="177.5" rx="1.5" transform="rotate(45, 434, 179)" opacity="0.12"></rect><rect width="71" height="3" x="591.5" y="770.5" rx="1.5" transform="rotate(45, 627, 772)" opacity="0.94"></rect><rect width="24" height="3" x="388" y="84.5" rx="1.5" transform="rotate(45, 400, 86)" opacity="0.94"></rect><rect width="239" height="3" x="37.5" y="524.5" rx="1.5" transform="rotate(45, 157, 526)" opacity="0.95"></rect><rect width="52" height="3" x="76" y="366.5" rx="1.5" transform="rotate(45, 102, 368)" opacity="0.91"></rect><rect width="94" height="3" x="575" y="530.5" rx="1.5" transform="rotate(45, 622, 532)" opacity="0.27"></rect><rect width="159" height="3" x="-37.5" y="464.5" rx="1.5" transform="rotate(45, 42, 466)" opacity="0.10"></rect><rect width="143" height="3" x="564.5" y="331.5" rx="1.5" transform="rotate(45, 636, 333)" opacity="0.57"></rect><rect width="88" height="3" x="458" y="477.5" rx="1.5" transform="rotate(45, 502, 479)" opacity="0.52"></rect><rect width="125" height="3" x="497.5" y="472.5" rx="1.5" transform="rotate(45, 560, 474)" opacity="0.32"></rect><rect width="69" height="3" x="342.5" y="213.5" rx="1.5" transform="rotate(45, 377, 215)" opacity="0.81"></rect><rect width="42" height="3" x="51" y="264.5" rx="1.5" transform="rotate(45, 72, 266)" opacity="0.41"></rect><rect width="39" height="3" x="408.5" y="518.5" rx="1.5" transform="rotate(45, 428, 520)" opacity="0.86"></rect><rect width="142" height="3" x="380" y="364.5" rx="1.5" transform="rotate(45, 451, 366)" opacity="0.73"></rect><rect width="106" height="3" x="313" y="50.5" rx="1.5" transform="rotate(45, 366, 52)" opacity="0.44"></rect><rect width="59" height="3" x="736.5" y="261.5" rx="1.5" transform="rotate(45, 766, 263)" opacity="0.96"></rect><rect width="130" height="3" x="332" y="333.5" rx="1.5" transform="rotate(45, 397, 335)" opacity="0.63"></rect><rect width="111" height="3" x="667.5" y="539.5" rx="1.5" transform="rotate(45, 723, 541)" opacity="0.67"></rect><rect width="101" height="3" x="410.5" y="493.5" rx="1.5" transform="rotate(45, 461, 495)" opacity="0.94"></rect><rect width="34" height="3" x="42" y="32.5" rx="1.5" transform="rotate(45, 59, 34)" opacity="0.24"></rect><rect width="199" height="3" x="638.5" y="644.5" rx="1.5" transform="rotate(45, 738, 646)" opacity="0.61"></rect><rect width="143" height="3" x="236.5" y="320.5" rx="1.5" transform="rotate(45, 308, 322)" opacity="0.48"></rect><rect width="127" height="3" x="479.5" y="678.5" rx="1.5" transform="rotate(45, 543, 680)" opacity="0.61"></rect><rect width="145" height="3" x="663.5" y="318.5" rx="1.5" transform="rotate(45, 736, 320)" opacity="0.35"></rect><rect width="169" height="3" x="475.5" y="528.5" rx="1.5" transform="rotate(45, 560, 530)" opacity="0.52"></rect><rect width="267" height="3" x="623.5" y="391.5" rx="1.5" transform="rotate(45, 757, 393)" opacity="0.55"></rect><rect width="116" height="3" x="178" y="566.5" rx="1.5" transform="rotate(45, 236, 568)" opacity="0.69"></rect><rect width="186" height="3" x="45" y="301.5" rx="1.5" transform="rotate(45, 138, 303)" opacity="0.77"></rect><rect width="96" height="3" x="315" y="601.5" rx="1.5" transform="rotate(45, 363, 603)" opacity="0.56"></rect><rect width="62" height="3" x="-3" y="328.5" rx="1.5" transform="rotate(45, 28, 330)" opacity="0.64"></rect><rect width="31" height="3" x="28.5" y="767.5" rx="1.5" transform="rotate(45, 44, 769)" opacity="0.99"></rect><rect width="67" height="3" x="187.5" y="212.5" rx="1.5" transform="rotate(45, 221, 214)" opacity="0.95"></rect><rect width="166" height="3" x="331" y="716.5" rx="1.5" transform="rotate(45, 414, 718)" opacity="0.58"></rect><rect width="156" height="3" x="-57" y="280.5" rx="1.5" transform="rotate(45, 21, 282)" opacity="0.31"></rect><rect width="164" height="3" x="129" y="757.5" rx="1.5" transform="rotate(45, 211, 759)" opacity="0.49"></rect><rect width="182" height="3" x="-59" y="633.5" rx="1.5" transform="rotate(45, 32, 635)" opacity="0.07"></rect><rect width="69" height="3" x="467.5" y="359.5" rx="1.5" transform="rotate(45, 502, 361)" opacity="0.62"></rect><rect width="89" height="3" x="93.5" y="187.5" rx="1.5" transform="rotate(45, 138, 189)" opacity="0.19"></rect><rect width="113" height="3" x="581.5" y="76.5" rx="1.5" transform="rotate(45, 638, 78)" opacity="0.95"></rect><rect width="198" height="3" x="492" y="272.5" rx="1.5" transform="rotate(45, 591, 274)" opacity="0.15"></rect><rect width="72" height="3" x="356" y="11.5" rx="1.5" transform="rotate(45, 392, 13)" opacity="0.60"></rect><rect width="29" height="3" x="400.5" y="566.5" rx="1.5" transform="rotate(45, 415, 568)" opacity="0.75"></rect><rect width="88" height="3" x="379" y="42.5" rx="1.5" transform="rotate(45, 423, 44)" opacity="0.26"></rect><rect width="60" height="3" x="296" y="765.5" rx="1.5" transform="rotate(45, 326, 767)" opacity="0.69"></rect><rect width="126" height="3" x="201" y="206.5" rx="1.5" transform="rotate(45, 264, 208)" opacity="0.34"></rect><rect width="31" height="3" x="561.5" y="345.5" rx="1.5" transform="rotate(45, 577, 347)" opacity="0.45"></rect><rect width="45" height="3" x="483.5" y="162.5" rx="1.5" transform="rotate(45, 506, 164)" opacity="0.80"></rect><rect width="99" height="3" x="460.5" y="271.5" rx="1.5" transform="rotate(45, 510, 273)" opacity="0.37"></rect><rect width="44" height="3" x="472" y="636.5" rx="1.5" transform="rotate(45, 494, 638)" opacity="0.33"></rect><rect width="43" height="3" x="96.5" y="438.5" rx="1.5" transform="rotate(45, 118, 440)" opacity="0.56"></rect><rect width="59" height="3" x="667.5" y="591.5" rx="1.5" transform="rotate(45, 697, 593)" opacity="0.84"></rect><rect width="57" height="3" x="378.5" y="259.5" rx="1.5" transform="rotate(45, 407, 261)" opacity="0.56"></rect></g></svg>