<svg width="548" height="148" viewBox="0 0 548 148" fill="none" xmlns="http://www.w3.org/2000/svg">
<path d="M86.2691 52.8333C70.3538 52.8333 57.5129 63.8932 57.5129 81.1966C57.5129 98.6783 70.173 109.738 86.2691 109.917C102.185 109.917 115.026 98.6783 115.026 81.375C115.026 63.8932 102.185 52.8333 86.2691 52.8333ZM86.2691 94.9324C79.397 94.9324 73.9712 90.1159 73.9712 81.375C73.9712 72.6341 79.2156 67.9961 86.2691 67.9961C93.3225 67.9961 98.3868 72.6341 98.3868 81.375C98.3868 90.1159 92.961 94.9324 86.2691 94.9324ZM54.0766 86.7266C54.0766 99.5702 44.1294 109.917 24.7775 109.917C15.5538 109.917 7.77688 107.955 0 104.922L3.25545 89.5807C10.3089 92.7917 17.1815 94.7541 24.5967 94.7541C32.7353 94.7541 36.5333 92.2565 36.5333 87.4401C36.5333 83.5156 33.4587 82.0886 23.3307 79.056C19.8944 77.9857 16.6389 76.9154 13.9261 75.8451C4.52146 72.0989 0.361716 65.6771 0.361716 56.2227C0.361716 43.5573 10.6706 33.5677 29.6607 33.5677C37.7994 33.5677 44.4911 35.1732 51.5446 37.8489L48.2891 53.0117C42.14 50.6927 36.1716 49.0872 29.4799 49.0872C21.3413 49.0872 17.7241 51.2279 17.7241 55.8659C17.7241 59.7904 20.6178 61.2174 29.6607 63.8932C33.0971 64.7852 36.3525 65.8555 39.2462 66.9258C48.1082 70.3151 54.0766 76.2018 54.0766 86.7266ZM153.006 54.4388H169.102V106.171C160.24 108.489 152.464 109.738 144.325 109.738C127.505 109.738 119.186 103.316 119.186 88.6888V54.4388H135.282V87.0834C135.282 92.4349 136.729 95.2889 145.229 95.2889C148.304 95.2889 150.835 94.9324 153.187 94.3969L153.006 54.4388ZM266.042 74.0612V108.847H249.946V75.8451C249.946 70.1367 248.138 67.8177 242.169 67.8177C238.371 67.8177 235.115 68.888 232.222 69.9583V108.847H216.126V30H232.222V55.5091C235.658 54.2604 240.722 53.1901 245.786 53.1901C259.712 53.1901 266.042 59.7904 266.042 74.0612ZM334.407 108.847H319.938L309.448 78.1641L298.416 108.847H283.947L266.766 54.6172H283.405L292.448 85.2995L303.299 54.6172H316.682L326.811 85.6563L336.577 54.6172H353.578L334.407 108.847ZM450.518 92.2565C450.518 102.246 443.464 110.095 427.911 110.095C420.857 110.095 414.527 109.025 407.835 107.241L410.186 93.8622C415.612 96.0025 420.857 96.8944 426.645 96.8944C431.166 96.8944 434.602 95.8243 434.602 93.3268C434.602 90.8295 431.708 90.1159 425.921 88.332C423.208 87.4401 420.676 86.5482 418.506 85.6563C411.091 82.6237 407.473 77.9857 407.473 70.6719C407.473 60.5039 415.431 52.8333 430.442 53.0117C436.773 53.0117 442.379 54.082 447.986 55.3307L445.454 68.7097C440.389 67.2826 435.506 66.2122 430.261 66.2122C425.379 66.2122 423.208 67.8177 423.208 70.1367C423.208 72.4557 425.378 73.3477 430.804 74.7748C433.517 75.4883 436.049 76.3802 438.219 77.0938C447.443 80.1263 450.518 85.2995 450.518 92.2565ZM404.399 79.2344C404.399 64.6068 396.26 53.0117 379.621 53.0117C362.982 53.0117 351.407 64.4284 351.407 82.4453C351.407 99.2137 361.716 110.095 379.802 110.095C387.941 110.095 394.452 108.133 401.324 105.279L398.973 92.4349C393.909 94.7541 388.483 96.5379 382.334 96.5379C372.929 96.5379 369.132 92.4349 368.589 86.905H403.856C403.856 86.7266 404.399 80.4831 404.399 79.2344ZM368.769 74.7748C369.855 69.9583 372.206 65.6771 378.898 65.6771C385.771 65.6771 387.76 71.0286 387.941 74.7748H368.769ZM490.126 107.776C485.785 109.025 481.987 109.917 477.104 109.917C461.55 109.917 458.475 99.3919 458.475 90.1159V68.1745H450.879V54.6172H458.475V40.3464H474.572V54.6172H489.221V68.1745H474.572V89.224C474.572 93.505 475.295 96.1808 481.082 96.1808C483.434 96.1808 485.424 95.8243 487.774 95.1106L490.126 107.776ZM212.508 107.776C208.168 109.025 204.369 109.917 199.487 109.917C183.933 109.917 180.858 99.3919 180.858 90.1159V68.1745H173.262V54.6172H180.858V40.3464H196.954V54.6172H211.604V68.1745H196.954V89.224C196.954 93.505 197.678 96.1808 203.466 96.1808C205.816 96.1808 207.806 95.8243 210.157 95.1106L212.508 107.776Z" fill="#304CB2"/>
<mask id="mask0" style="mask-type:alpha" maskUnits="userSpaceOnUse" x="502" y="69" width="46" height="44">
<path d="M525.391 72.728C522.867 71.3115 519.716 69.9583 515.795 69.9583C507.962 69.9583 502.786 75.0188 502.786 83.657C502.786 94.2016 512.976 104.501 525.391 112.771C537.813 104.501 548 94.2016 548 83.657C548 75.0188 542.824 69.9583 534.99 69.9583C531.07 69.9583 527.914 71.3115 525.391 72.728Z" fill="white"/>
</mask>
<g mask="url(#mask0)">
<path style="mix-blend-mode:multiply" d="M525.398 47.6152L481.126 91.3593L525.398 135.103L569.671 91.3593L525.398 47.6152Z" fill="url(#paint0_linear)"/>
</g>
<mask id="mask1" style="mask-type:alpha" maskUnits="userSpaceOnUse" x="502" y="69" width="46" height="44">
<path d="M534.991 69.9583C542.826 69.9583 548 75.0188 548 83.657C548 94.2016 537.813 104.499 525.391 112.771C512.977 104.499 502.786 94.2016 502.786 83.657C502.786 75.0188 507.962 69.9583 515.795 69.9583C519.716 69.9583 522.867 71.3125 525.391 72.728C527.914 71.3125 531.07 69.9583 534.991 69.9583Z" fill="white"/>
</mask>
<g mask="url(#mask1)">
<path style="mix-blend-mode:multiply" d="M517.668 48.9615L482.433 98.6813L533.129 133.755L568.364 84.0353L517.668 48.9615Z" fill="url(#paint1_linear)"/>
</g>
<mask id="mask2" style="mask-type:alpha" maskUnits="userSpaceOnUse" x="504" y="80" width="30" height="32">
<path d="M504.062 83.8422C504.062 94.6244 515.566 104.651 525.39 111.286C528.219 109.374 531.141 107.178 533.919 104.767C520.903 93.9964 508.691 84.3594 504.304 80.9075C504.151 81.8311 504.062 82.8161 504.062 83.8422Z" fill="white"/>
</mask>
<g mask="url(#mask2)">
<path d="M533.929 80.8952H504.074V111.269H533.929V80.8952Z" fill="url(#paint2_linear)"/>
</g>
<mask id="mask3" style="mask-type:alpha" maskUnits="userSpaceOnUse" x="504" y="71" width="42" height="32">
<path d="M507.298 74.4165C505.957 75.8009 505.047 77.5383 504.531 79.6481C509.413 83.0174 522.68 92.391 536.04 102.845C540.497 98.6469 544.239 93.8767 545.85 88.8436C536.416 81.1562 530.707 77.2446 524.583 73.6126C522.928 72.6277 519.615 71.192 515.904 71.192C512.346 71.192 509.359 72.2857 507.298 74.4165Z" fill="white"/>
</mask>
<g mask="url(#mask3)">
<path d="M515.677 50.5351L487.209 91.0004L530.034 120.413L558.502 79.948L515.677 50.5351Z" fill="url(#paint3_linear)"/>
</g>
<mask id="mask4" style="mask-type:alpha" maskUnits="userSpaceOnUse" x="526" y="71" width="21" height="15">
<path d="M526.625 73.4305C530.283 75.4397 538.235 79.9932 546.469 85.9873C546.597 85.1754 546.666 84.3636 546.666 83.5456C546.666 79.7476 545.541 76.5665 543.465 74.4205C541.439 72.3339 538.463 71.2101 535.041 71.2101C531.371 71.2101 528.575 72.3852 526.625 73.4305Z" fill="white"/>
</mask>
<g mask="url(#mask4)">
<path d="M534.846 61.4193L521.312 80.6578L541.81 94.7366L555.344 75.4978L534.846 61.4193Z" fill="url(#paint4_linear)"/>
</g>
<defs>
<linearGradient id="paint0_linear" x1="513.483" y1="103.397" x2="543.687" y2="72.8278" gradientUnits="userSpaceOnUse">
<stop stop-color="#DCDDDE"/>
<stop offset="0.12" stop-color="#E9E9EA"/>
<stop offset="0.34" stop-color="#F9F9FA"/>
<stop offset="0.5" stop-color="white"/>
<stop offset="0.67" stop-color="#FBFBFB"/>
<stop offset="0.84" stop-color="#EEEFEF"/>
<stop offset="1" stop-color="#DCDDDE"/>
</linearGradient>
<linearGradient id="paint1_linear" x1="505.681" y1="74.2783" x2="541.221" y2="99.4643" gradientUnits="userSpaceOnUse">
<stop stop-color="#D1D3D4"/>
<stop offset="0.01" stop-color="#D1D3D4"/>
<stop offset="0.1" stop-color="#D1D3D4"/>
<stop offset="0.18" stop-color="#B1B3B6"/>
<stop offset="0.22" stop-color="#B6B8BB"/>
<stop offset="0.3" stop-color="#BCBEC0"/>
<stop offset="0.34" stop-color="#CED0D1"/>
<stop offset="0.41" stop-color="#F1F2F2"/>
<stop offset="0.48" stop-color="#E8E9EA"/>
<stop offset="0.61" stop-color="#D0D1D3"/>
<stop offset="0.73" stop-color="#B1B3B6"/>
<stop offset="0.77" stop-color="#D0D1D3"/>
<stop offset="0.81" stop-color="#E8E9EA"/>
<stop offset="0.83" stop-color="#F1F2F2"/>
<stop offset="0.86" stop-color="#E8E9E9"/>
<stop offset="0.91" stop-color="#D0D1D2"/>
<stop offset="0.92" stop-color="#C7C8CA"/>
<stop offset="1" stop-color="#B1B3B6"/>
</linearGradient>
<linearGradient id="paint2_linear" x1="504.064" y1="97.5862" x2="533.919" y2="97.5862" gradientUnits="userSpaceOnUse">
<stop stop-color="#005EAA"/>
<stop offset="0.35" stop-color="#0D499C"/>
<stop offset="0.72" stop-color="#1C3586"/>
<stop offset="1" stop-color="#1C3586"/>
</linearGradient>
<linearGradient id="paint3_linear" x1="505.604" y1="71.7371" x2="539.103" y2="95.3053" gradientUnits="userSpaceOnUse">
<stop stop-color="#E71C23"/>
<stop offset="0.3" stop-color="#E71C23"/>
<stop offset="0.8" stop-color="#C4161C"/>
<stop offset="1" stop-color="#C4161C"/>
</linearGradient>
<linearGradient id="paint4_linear" x1="528.218" y1="73.0247" x2="547.37" y2="86.4988" gradientUnits="userSpaceOnUse">
<stop stop-color="#FEBC11"/>
<stop offset="0.25" stop-color="#FDB515"/>
<stop offset="0.8" stop-color="#F99F1C"/>
<stop offset="1" stop-color="#F99F1C"/>
</linearGradient>
</defs>
</svg>
